<svg width="176" height="40" viewBox="0 0 176 40" fill="none" xmlns="http://www.w3.org/2000/svg">
<path d="M2.25 15L21 5L39.75 15L21 25L2.25 15Z" stroke="#036AA1" stroke-width="3" stroke-linecap="round" stroke-linejoin="round"/>
<path d="M30.375 37.5V20L21 15" stroke="#036AA1" stroke-width="3" stroke-linecap="round" stroke-linejoin="round"/>
<path d="M35.375 17.3333V25.8522C35.3755 26.1218 35.2884 26.3844 35.1266 26.6001C34.074 28.0008 29.6333 33.125 21 33.125C12.3667 33.125 7.92597 28.0008 6.87336 26.6001C6.71165 26.3844 6.62449 26.1218 6.625 25.8522V17.3333" stroke="#036AA1" stroke-width="3" stroke-linecap="round" stroke-linejoin="round"/>
<path d="M63.9432 15.125C63.8371 14.1326 63.3902 13.3598 62.6023 12.8068C61.822 12.2538 60.8068 11.9773 59.5568 11.9773C58.678 11.9773 57.9242 12.1098 57.2955 12.375C56.6667 12.6402 56.1856 13 55.8523 13.4545C55.5189 13.9091 55.3485 14.428 55.3409 15.0114C55.3409 15.4962 55.4508 15.9167 55.6705 16.2727C55.8977 16.6288 56.2045 16.9318 56.5909 17.1818C56.9773 17.4242 57.4053 17.6288 57.875 17.7955C58.3447 17.9621 58.8182 18.1023 59.2955 18.2159L61.4773 18.7614C62.3561 18.9659 63.2008 19.2424 64.0114 19.5909C64.8295 19.9394 65.5606 20.3788 66.2045 20.9091C66.8561 21.4394 67.3712 22.0795 67.75 22.8295C68.1288 23.5795 68.3182 24.4583 68.3182 25.4659C68.3182 26.8295 67.9697 28.0303 67.2727 29.0682C66.5758 30.0985 65.5682 30.9053 64.25 31.4886C62.9394 32.0644 61.3523 32.3523 59.4886 32.3523C57.678 32.3523 56.1061 32.072 54.7727 31.5114C53.447 30.9508 52.4091 30.1326 51.6591 29.0568C50.9167 27.9811 50.5152 26.6705 50.4545 25.125H54.6023C54.6629 25.9356 54.9129 26.6098 55.3523 27.1477C55.7917 27.6856 56.3636 28.0871 57.0682 28.3523C57.7803 28.6174 58.5758 28.75 59.4545 28.75C60.3712 28.75 61.1742 28.6136 61.8636 28.3409C62.5606 28.0606 63.1061 27.6742 63.5 27.1818C63.8939 26.6818 64.0947 26.0985 64.1023 25.4318C64.0947 24.8258 63.9167 24.3258 63.5682 23.9318C63.2197 23.5303 62.7311 23.197 62.1023 22.9318C61.4811 22.6591 60.7538 22.4167 59.9205 22.2045L57.2727 21.5227C55.3561 21.0303 53.8409 20.2841 52.7273 19.2841C51.6212 18.2765 51.0682 16.9394 51.0682 15.2727C51.0682 13.9015 51.4394 12.7008 52.1818 11.6705C52.9318 10.6402 53.9508 9.84091 55.2386 9.27273C56.5265 8.69697 57.9848 8.40909 59.6136 8.40909C61.2652 8.40909 62.7121 8.69697 63.9545 9.27273C65.2045 9.84091 66.1856 10.6326 66.8977 11.6477C67.6098 12.6553 67.9773 13.8144 68 15.125H63.9432ZM78.5485 32.3409C76.8061 32.3409 75.3099 31.9583 74.0599 31.1932C72.8175 30.428 71.8591 29.3712 71.1849 28.0227C70.5182 26.6667 70.1849 25.1061 70.1849 23.3409C70.1849 21.5682 70.5258 20.0038 71.2076 18.6477C71.8894 17.2841 72.8516 16.2235 74.094 15.4659C75.344 14.7008 76.8213 14.3182 78.5258 14.3182C79.9425 14.3182 81.1963 14.5795 82.2872 15.1023C83.3856 15.6174 84.2606 16.3485 84.9122 17.2955C85.5637 18.2348 85.9349 19.3333 86.0258 20.5909H82.094C81.9349 19.75 81.5561 19.0492 80.9576 18.4886C80.3667 17.9205 79.575 17.6364 78.5826 17.6364C77.7417 17.6364 77.0031 17.8636 76.3667 18.3182C75.7303 18.7652 75.2341 19.4091 74.8781 20.25C74.5296 21.0909 74.3553 22.0985 74.3553 23.2727C74.3553 24.4621 74.5296 25.4848 74.8781 26.3409C75.2266 27.1894 75.7152 27.8447 76.344 28.3068C76.9803 28.7614 77.7266 28.9886 78.5826 28.9886C79.1887 28.9886 79.7303 28.875 80.2076 28.6477C80.6925 28.4129 81.0978 28.0758 81.4235 27.6364C81.7493 27.197 81.9728 26.6629 82.094 26.0341H86.0258C85.9273 27.2689 85.5637 28.3636 84.9349 29.3182C84.3061 30.2652 83.45 31.0076 82.3667 31.5455C81.2834 32.0758 80.0106 32.3409 78.5485 32.3409ZM92.5573 21.7727V32H88.4436V8.72727H92.4664V17.5114H92.6709C93.08 16.5265 93.7126 15.75 94.5686 15.1818C95.4323 14.6061 96.5308 14.3182 97.8641 14.3182C99.0762 14.3182 100.133 14.572 101.035 15.0795C101.936 15.5871 102.633 16.3295 103.125 17.3068C103.625 18.2841 103.875 19.4773 103.875 20.8864V32H99.7618V21.5227C99.7618 20.3485 99.4588 19.4356 98.8527 18.7841C98.2542 18.125 97.4133 17.7955 96.33 17.7955C95.6027 17.7955 94.9512 17.9545 94.3755 18.2727C93.8073 18.5833 93.3603 19.0341 93.0345 19.625C92.7164 20.2159 92.5573 20.9318 92.5573 21.7727ZM114.722 32.3409C113.018 32.3409 111.54 31.9659 110.29 31.2159C109.04 30.4659 108.071 29.4167 107.381 28.0682C106.7 26.7197 106.359 25.1439 106.359 23.3409C106.359 21.5379 106.7 19.9583 107.381 18.6023C108.071 17.2462 109.04 16.1932 110.29 15.4432C111.54 14.6932 113.018 14.3182 114.722 14.3182C116.427 14.3182 117.904 14.6932 119.154 15.4432C120.404 16.1932 121.37 17.2462 122.052 18.6023C122.741 19.9583 123.086 21.5379 123.086 23.3409C123.086 25.1439 122.741 26.7197 122.052 28.0682C121.37 29.4167 120.404 30.4659 119.154 31.2159C117.904 31.9659 116.427 32.3409 114.722 32.3409ZM114.745 29.0455C115.669 29.0455 116.442 28.7917 117.063 28.2841C117.684 27.7689 118.147 27.0795 118.45 26.2159C118.76 25.3523 118.915 24.3902 118.915 23.3295C118.915 22.2614 118.76 21.2955 118.45 20.4318C118.147 19.5606 117.684 18.8674 117.063 18.3523C116.442 17.8371 115.669 17.5795 114.745 17.5795C113.798 17.5795 113.01 17.8371 112.381 18.3523C111.76 18.8674 111.294 19.5606 110.984 20.4318C110.681 21.2955 110.529 22.2614 110.529 23.3295C110.529 24.3902 110.681 25.3523 110.984 26.2159C111.294 27.0795 111.76 27.7689 112.381 28.2841C113.01 28.7917 113.798 29.0455 114.745 29.0455ZM133.231 32.3409C131.526 32.3409 130.049 31.9659 128.799 31.2159C127.549 30.4659 126.58 29.4167 125.89 28.0682C125.208 26.7197 124.867 25.1439 124.867 23.3409C124.867 21.5379 125.208 19.9583 125.89 18.6023C126.58 17.2462 127.549 16.1932 128.799 15.4432C130.049 14.6932 131.526 14.3182 133.231 14.3182C134.936 14.3182 136.413 14.6932 137.663 15.4432C138.913 16.1932 139.879 17.2462 140.561 18.6023C141.25 19.9583 141.595 21.5379 141.595 23.3409C141.595 25.1439 141.25 26.7197 140.561 28.0682C139.879 29.4167 138.913 30.4659 137.663 31.2159C136.413 31.9659 134.936 32.3409 133.231 32.3409ZM133.254 29.0455C134.178 29.0455 134.951 28.7917 135.572 28.2841C136.193 27.7689 136.655 27.0795 136.958 26.2159C137.269 25.3523 137.424 24.3902 137.424 23.3295C137.424 22.2614 137.269 21.2955 136.958 20.4318C136.655 19.5606 136.193 18.8674 135.572 18.3523C134.951 17.8371 134.178 17.5795 133.254 17.5795C132.307 17.5795 131.519 17.8371 130.89 18.3523C130.269 18.8674 129.803 19.5606 129.492 20.4318C129.189 21.2955 129.038 22.2614 129.038 23.3295C129.038 24.3902 129.189 25.3523 129.492 26.2159C129.803 27.0795 130.269 27.7689 130.89 28.2841C131.519 28.7917 132.307 29.0455 133.254 29.0455ZM148.24 8.72727V32H144.126V8.72727H148.24ZM151.51 32V14.5455H155.624V32H151.51ZM153.578 12.0682C152.927 12.0682 152.366 11.8523 151.896 11.4205C151.427 10.9811 151.192 10.4545 151.192 9.84091C151.192 9.2197 151.427 8.69318 151.896 8.26136C152.366 7.82197 152.927 7.60227 153.578 7.60227C154.237 7.60227 154.798 7.82197 155.26 8.26136C155.73 8.69318 155.964 9.2197 155.964 9.84091C155.964 10.4545 155.73 10.9811 155.26 11.4205C154.798 11.8523 154.237 12.0682 153.578 12.0682ZM166.621 32.3409C164.871 32.3409 163.36 31.9773 162.087 31.25C160.822 30.5152 159.848 29.4773 159.166 28.1364C158.485 26.7879 158.144 25.2008 158.144 23.375C158.144 21.5795 158.485 20.0038 159.166 18.6477C159.856 17.2841 160.818 16.2235 162.053 15.4659C163.288 14.7008 164.738 14.3182 166.405 14.3182C167.481 14.3182 168.496 14.4924 169.45 14.8409C170.413 15.1818 171.261 15.7121 171.996 16.4318C172.738 17.1515 173.322 18.0682 173.746 19.1818C174.17 20.2879 174.382 21.6061 174.382 23.1364V24.3977H160.075V21.625H170.439C170.432 20.8371 170.261 20.1364 169.928 19.5227C169.594 18.9015 169.128 18.4129 168.53 18.0568C167.939 17.7008 167.25 17.5227 166.462 17.5227C165.621 17.5227 164.882 17.7273 164.246 18.1364C163.61 18.5379 163.113 19.0682 162.757 19.7273C162.409 20.3788 162.231 21.0947 162.223 21.875V24.2955C162.223 25.3106 162.409 26.1818 162.78 26.9091C163.151 27.6288 163.67 28.1818 164.337 28.5682C165.003 28.947 165.784 29.1364 166.678 29.1364C167.276 29.1364 167.818 29.053 168.303 28.8864C168.788 28.7121 169.208 28.4583 169.564 28.125C169.92 27.7917 170.189 27.3788 170.371 26.8864L174.212 27.3182C173.969 28.3333 173.507 29.2197 172.825 29.9773C172.151 30.7273 171.288 31.3106 170.235 31.7273C169.182 32.1364 167.977 32.3409 166.621 32.3409Z" fill="#1D2026"/>
</svg>
